<?xml version="1.0" encoding="utf-8"?>
<!-- Generator: Adobe Illustrator 26.5.0, SVG Export Plug-In . SVG Version: 6.00 Build 0)  -->
<svg version="1.1" id="Layer_1" xmlns="http://www.w3.org/2000/svg" xmlns:xlink="http://www.w3.org/1999/xlink" x="0px" y="0px"
	 viewBox="0 0 700 700" style="enable-background:new 0 0 700 700;" xml:space="preserve">
<g>
	<path d="M159.6,165.2c-12.4,0-22.4,10-22.4,22.4c0,12.4,10,22.4,22.4,22.4h380.8c12.4,0,22.4-10,22.4-22.4s-10-22.4-22.4-22.4
		H159.6z M159.6,327.6c-12.4,0-22.4,10-22.4,22.4s10,22.4,22.4,22.4h380.8c12.4,0,22.4-10,22.4-22.4s-10-22.4-22.4-22.4H159.6z
		 M159.6,490c-12.4,0-22.4,10-22.4,22.4c0,12.4,10,22.4,22.4,22.4h380.8c12.4,0,22.4-10,22.4-22.4c0-12.4-10-22.4-22.4-22.4H159.6z"
		/>
</g>
</svg>
